<svg width="52" height="52" viewBox="0 0 52 52" fill="none" xmlns="http://www.w3.org/2000/svg">
<rect width="50.3924" height="50.3924" transform="translate(0.828979 0.63208)" fill="black"/>
<path d="M45.5115 39.3164C44.7812 41.0036 43.9167 42.5567 42.9151 43.9846C41.5499 45.9311 40.432 47.2785 39.5705 48.0267C38.2351 49.2549 36.8042 49.8839 35.272 49.9196C34.172 49.9196 32.8455 49.6066 31.3014 48.9717C29.7522 48.3397 28.3285 48.0267 27.0267 48.0267C25.6614 48.0267 24.1972 48.3397 22.631 48.9717C21.0625 49.6066 19.7988 49.9375 18.8327 49.9703C17.3634 50.0329 15.8989 49.3861 14.437 48.0267C13.504 47.2129 12.3369 45.8179 10.9389 43.8415C9.43887 41.731 8.20565 39.2836 7.23953 36.4935C6.20484 33.4798 5.68616 30.5614 5.68616 27.7361C5.68616 24.4997 6.38549 21.7083 7.78623 19.3692C8.88709 17.4903 10.3516 16.0082 12.1846 14.9201C14.0176 13.8321 15.9981 13.2776 18.131 13.2422C19.298 13.2422 20.8284 13.6031 22.7303 14.3126C24.6268 15.0245 25.8445 15.3854 26.3784 15.3854C26.7775 15.3854 28.1303 14.9633 30.4235 14.1218C32.5921 13.3414 34.4224 13.0183 35.9218 13.1456C39.9849 13.4735 43.0374 15.0751 45.0674 17.9607C41.4336 20.1624 39.6361 23.2462 39.6719 27.2022C39.7047 30.2836 40.8225 32.8478 43.0195 34.8838C44.0151 35.8287 45.127 36.5591 46.3641 37.0777C46.0958 37.8558 45.8126 38.601 45.5115 39.3164ZM36.1931 2.64789C36.1931 5.06308 35.3108 7.31813 33.552 9.40538C31.4296 11.8867 28.8624 13.3206 26.0785 13.0943C26.043 12.8046 26.0224 12.4996 26.0224 12.1791C26.0224 9.86057 27.0318 7.37924 28.8242 5.35041C29.7191 4.32318 30.8572 3.46905 32.2374 2.7877C33.6146 2.11651 34.9173 1.74533 36.1424 1.68176C36.1782 2.00464 36.1931 2.32753 36.1931 2.64786V2.64789Z" fill="white"/>
</svg>
