<svg width="53" height="79" viewBox="0 0 53 79" fill="none" xmlns="http://www.w3.org/2000/svg">
<g clip-path="url(#clip0_208_133)">
<path d="M13.2954 78.763C20.5321 78.763 26.4054 72.8898 26.4054 65.6531V52.5431H13.2954C6.05872 52.5431 0.185455 58.4164 0.185455 65.6531C0.185455 72.8898 6.05872 78.763 13.2954 78.763Z" fill="#0ACF83"/>
<path d="M0.185455 39.4339C0.185455 32.1972 6.05872 26.3239 13.2954 26.3239H26.4054V52.5438H13.2954C6.05872 52.5438 0.185455 46.6706 0.185455 39.4339Z" fill="#A259FF"/>
<path d="M0.192749 13.2136C0.192749 5.97694 6.06601 0.103676 13.3027 0.103676H26.4127V26.3236H13.3027C6.06601 26.3236 0.192749 20.4503 0.192749 13.2136Z" fill="#F24E1E"/>
<path d="M26.4055 0.103714H39.5155C46.7522 0.103714 52.6254 5.97697 52.6254 13.2137C52.6254 20.4504 46.7522 26.3236 39.5155 26.3236H26.4055V0.103714Z" fill="#FF7262"/>
<path d="M52.6254 39.4339C52.6254 46.6706 46.7522 52.5438 39.5155 52.5438C32.2788 52.5438 26.4055 46.6706 26.4055 39.4339C26.4055 32.1972 32.2788 26.3239 39.5155 26.3239C46.7522 26.3239 52.6254 32.1972 52.6254 39.4339Z" fill="#1ABCFE"/>
</g>
<defs>
<clipPath id="clip0_208_133">
<rect width="52.4503" height="78.6597" fill="white" transform="translate(0.180161 0.103676)"/>
</clipPath>
</defs>
</svg>
